G04 #@! TF.FileFunction,Copper,L2,Bot,Signal*
%FSLAX46Y46*%
G04 Gerber Fmt 4.6, Leading zero omitted, Abs format (unit mm)*
G04 Created by KiCad (PCBNEW 4.0.6) date 06/29/17 03:26:59*
%MOMM*%
%LPD*%
G01*
G04 APERTURE LIST*
%ADD10C,0.100000*%
%ADD11C,1.143000*%
%ADD12R,1.000000X1.000000*%
%ADD13O,1.000000X1.000000*%
%ADD14R,1.350000X1.350000*%
%ADD15O,1.350000X1.350000*%
%ADD16C,0.600000*%
%ADD17C,0.500000*%
%ADD18C,0.254000*%
G04 APERTURE END LIST*
D10*
D11*
X195580000Y-60960000D03*
X195580000Y-81280000D03*
D12*
X209804000Y-75184000D03*
D13*
X209804000Y-76454000D03*
D14*
X182626000Y-85598000D03*
D15*
X184626000Y-85598000D03*
D14*
X203962000Y-85598000D03*
D15*
X205962000Y-85598000D03*
X207962000Y-85598000D03*
X209962000Y-85598000D03*
X211962000Y-85598000D03*
X213962000Y-85598000D03*
X215962000Y-85598000D03*
D16*
X180303274Y-94488000D03*
X184803274Y-94488000D03*
X189303274Y-94488000D03*
X193803274Y-94488000D03*
X198303274Y-94488000D03*
X202803274Y-94488000D03*
X207303274Y-94488000D03*
X211473274Y-94488000D03*
X215973274Y-94488000D03*
X220473274Y-94488000D03*
X224973274Y-94488000D03*
X229228274Y-94488000D03*
X233728274Y-94488000D03*
X242728274Y-94488000D03*
X238228274Y-94488000D03*
X240538000Y-110744000D03*
X236220000Y-110744000D03*
X231648000Y-110744000D03*
X227076000Y-110744000D03*
X222758000Y-110744000D03*
X218186000Y-110744000D03*
X213868000Y-110744000D03*
X209550000Y-110744000D03*
X205232000Y-110744000D03*
X200660000Y-110744000D03*
X196088000Y-110744000D03*
X191516000Y-110744000D03*
X187198000Y-110744000D03*
X182626000Y-110744000D03*
X218186000Y-83820000D03*
X225298000Y-74168000D03*
X234188000Y-74168000D03*
X194310000Y-83820000D03*
X241808000Y-72390000D03*
X239522000Y-70104000D03*
X242570000Y-82042000D03*
X227838000Y-85090000D03*
X176784000Y-114046000D03*
X227584000Y-72390000D03*
X233172000Y-72390000D03*
X243332000Y-71882000D03*
X230632000Y-59182000D03*
X175260000Y-121920000D03*
X180340000Y-86360000D03*
X236220000Y-85852000D03*
X177292000Y-112776000D03*
D17*
X180303274Y-94488000D02*
X180340000Y-94488000D01*
X184803274Y-94488000D02*
X184912000Y-94488000D01*
X189303274Y-94488000D02*
X189230000Y-94488000D01*
X193803274Y-94488000D02*
X193802000Y-94488000D01*
X198303274Y-94488000D02*
X198374000Y-94488000D01*
X202803274Y-94488000D02*
X202692000Y-94488000D01*
X207303274Y-94488000D02*
X207264000Y-94488000D01*
X220473274Y-94488000D02*
X220472000Y-94488000D01*
X224973274Y-94488000D02*
X225044000Y-94488000D01*
X229228274Y-94488000D02*
X229108000Y-94488000D01*
X233728274Y-94488000D02*
X233680000Y-94488000D01*
X242728274Y-94488000D02*
X242570000Y-94488000D01*
X238228274Y-94488000D02*
X238252000Y-94488000D01*
X218186000Y-83820000D02*
X213106000Y-83820000D01*
X211962000Y-84964000D02*
X213106000Y-83820000D01*
X211962000Y-84964000D02*
X211962000Y-85598000D01*
X211962000Y-84964000D02*
X211962000Y-85598000D01*
X234188000Y-74168000D02*
X225298000Y-74168000D01*
X225298000Y-74168000D02*
X225552000Y-74168000D01*
X241808000Y-72390000D02*
X241808000Y-72644000D01*
X241808000Y-72644000D02*
X241554000Y-72898000D01*
X239522000Y-70104000D02*
X239268000Y-70358000D01*
X178308000Y-89916000D02*
X176276000Y-91948000D01*
X182626000Y-85598000D02*
X178308000Y-89916000D01*
X176276000Y-113538000D02*
X176784000Y-114046000D01*
X176276000Y-91948000D02*
X176276000Y-113538000D01*
X233172000Y-72390000D02*
X227584000Y-72390000D01*
X230632000Y-59182000D02*
X243332000Y-71882000D01*
X227330000Y-55880000D02*
X230632000Y-59182000D01*
X180340000Y-58420000D02*
X185420000Y-53340000D01*
X185420000Y-53340000D02*
X224790000Y-53340000D01*
X224790000Y-53340000D02*
X227330000Y-55880000D01*
X180340000Y-86360000D02*
X180340000Y-58420000D01*
X175260000Y-121666000D02*
X175260000Y-121920000D01*
X175260000Y-91440000D02*
X175260000Y-121666000D01*
X175260000Y-91440000D02*
X180340000Y-86360000D01*
X205962000Y-84868000D02*
X205962000Y-85598000D01*
X207010000Y-83820000D02*
X205962000Y-84868000D01*
X211328000Y-83820000D02*
X207010000Y-83820000D01*
X212344000Y-82804000D02*
X211328000Y-83820000D01*
X218948000Y-82804000D02*
X212344000Y-82804000D01*
X222758000Y-86614000D02*
X218948000Y-82804000D01*
X235458000Y-86614000D02*
X222758000Y-86614000D01*
X236220000Y-85852000D02*
X235458000Y-86614000D01*
X215962000Y-86806000D02*
X215962000Y-85598000D01*
X214884000Y-87884000D02*
X215962000Y-86806000D01*
X181864000Y-87884000D02*
X214884000Y-87884000D01*
X177292000Y-92456000D02*
X181864000Y-87884000D01*
X177292000Y-112776000D02*
X177292000Y-92456000D01*
D18*
G36*
X246507000Y-113665000D02*
X180392606Y-113665000D01*
X178435000Y-111707394D01*
X178435000Y-93018743D01*
X182930493Y-88773000D01*
X246507000Y-88773000D01*
X246507000Y-113665000D01*
X246507000Y-113665000D01*
G37*
X246507000Y-113665000D02*
X180392606Y-113665000D01*
X178435000Y-111707394D01*
X178435000Y-93018743D01*
X182930493Y-88773000D01*
X246507000Y-88773000D01*
X246507000Y-113665000D01*
G36*
X246253000Y-77268606D02*
X246253000Y-86741000D01*
X236582580Y-86741000D01*
X236628835Y-86694745D01*
X236748943Y-86645117D01*
X237012192Y-86382327D01*
X237154838Y-86038799D01*
X237155162Y-85666833D01*
X237013117Y-85323057D01*
X236750327Y-85059808D01*
X236406799Y-84917162D01*
X236034833Y-84916838D01*
X235691057Y-85058883D01*
X235427808Y-85321673D01*
X235377434Y-85442987D01*
X235091420Y-85729000D01*
X223124579Y-85729000D01*
X219573790Y-82178210D01*
X219286675Y-81986367D01*
X219206173Y-81970354D01*
X218948000Y-81918999D01*
X218947995Y-81919000D01*
X212344005Y-81919000D01*
X212344000Y-81918999D01*
X212085827Y-81970354D01*
X212005325Y-81986367D01*
X211718210Y-82178210D01*
X211718208Y-82178213D01*
X210961420Y-82935000D01*
X207010005Y-82935000D01*
X207010000Y-82934999D01*
X206727516Y-82991190D01*
X206671325Y-83002367D01*
X206384210Y-83194210D01*
X206384208Y-83194213D01*
X205336210Y-84242210D01*
X205144367Y-84529325D01*
X205144367Y-84529326D01*
X205143867Y-84531841D01*
X204996699Y-84384673D01*
X204763310Y-84288000D01*
X204247750Y-84288000D01*
X204089000Y-84446750D01*
X204089000Y-85471000D01*
X204109000Y-85471000D01*
X204109000Y-85725000D01*
X204089000Y-85725000D01*
X204089000Y-85745000D01*
X203835000Y-85745000D01*
X203835000Y-85725000D01*
X202810750Y-85725000D01*
X202652000Y-85883750D01*
X202652000Y-86399309D01*
X202748673Y-86632698D01*
X202856974Y-86741000D01*
X185266419Y-86741000D01*
X185552310Y-86549974D01*
X185836282Y-86124979D01*
X185936000Y-85623664D01*
X185936000Y-85572336D01*
X185836282Y-85071021D01*
X185652981Y-84796691D01*
X202652000Y-84796691D01*
X202652000Y-85312250D01*
X202810750Y-85471000D01*
X203835000Y-85471000D01*
X203835000Y-84446750D01*
X203676250Y-84288000D01*
X203160690Y-84288000D01*
X202927301Y-84384673D01*
X202748673Y-84563302D01*
X202652000Y-84796691D01*
X185652981Y-84796691D01*
X185552310Y-84646026D01*
X185127315Y-84362054D01*
X184626000Y-84262336D01*
X184124685Y-84362054D01*
X183832986Y-84556961D01*
X183660699Y-84384673D01*
X183427310Y-84288000D01*
X182911750Y-84288000D01*
X182753000Y-84446750D01*
X182753000Y-85471000D01*
X182773000Y-85471000D01*
X182773000Y-85725000D01*
X182753000Y-85725000D01*
X182753000Y-85745000D01*
X182499000Y-85745000D01*
X182499000Y-85725000D01*
X181474750Y-85725000D01*
X181316000Y-85883750D01*
X181316000Y-86399309D01*
X181412673Y-86632698D01*
X181520974Y-86741000D01*
X181194198Y-86741000D01*
X181274838Y-86546799D01*
X181275162Y-86174833D01*
X181225000Y-86053431D01*
X181225000Y-84796691D01*
X181316000Y-84796691D01*
X181316000Y-85312250D01*
X181474750Y-85471000D01*
X182499000Y-85471000D01*
X182499000Y-84446750D01*
X182340250Y-84288000D01*
X181824690Y-84288000D01*
X181591301Y-84384673D01*
X181412673Y-84563302D01*
X181316000Y-84796691D01*
X181225000Y-84796691D01*
X181225000Y-82122046D01*
X194917559Y-82122046D01*
X194963552Y-82344533D01*
X195417855Y-82499405D01*
X195896844Y-82468633D01*
X196196448Y-82344533D01*
X196242441Y-82122046D01*
X195580000Y-81459605D01*
X194917559Y-82122046D01*
X181225000Y-82122046D01*
X181225000Y-81117855D01*
X194360595Y-81117855D01*
X194391367Y-81596844D01*
X194515467Y-81896448D01*
X194737954Y-81942441D01*
X195400395Y-81280000D01*
X195759605Y-81280000D01*
X196422046Y-81942441D01*
X196644533Y-81896448D01*
X196799405Y-81442145D01*
X196768633Y-80963156D01*
X196644533Y-80663552D01*
X196422046Y-80617559D01*
X195759605Y-81280000D01*
X195400395Y-81280000D01*
X194737954Y-80617559D01*
X194515467Y-80663552D01*
X194360595Y-81117855D01*
X181225000Y-81117855D01*
X181225000Y-80437954D01*
X194917559Y-80437954D01*
X195580000Y-81100395D01*
X196242441Y-80437954D01*
X196196448Y-80215467D01*
X195742145Y-80060595D01*
X195263156Y-80091367D01*
X194963552Y-80215467D01*
X194917559Y-80437954D01*
X181225000Y-80437954D01*
X181225000Y-76755874D01*
X208709881Y-76755874D01*
X208816873Y-77014209D01*
X209106396Y-77349323D01*
X209502123Y-77548132D01*
X209677000Y-77423135D01*
X209677000Y-76581000D01*
X209931000Y-76581000D01*
X209931000Y-77423135D01*
X210105877Y-77548132D01*
X210501604Y-77349323D01*
X210791127Y-77014209D01*
X210898119Y-76755874D01*
X210771954Y-76581000D01*
X209931000Y-76581000D01*
X209677000Y-76581000D01*
X208836046Y-76581000D01*
X208709881Y-76755874D01*
X181225000Y-76755874D01*
X181225000Y-76073000D01*
X208742652Y-76073000D01*
X208709881Y-76152126D01*
X208836046Y-76327000D01*
X209282075Y-76327000D01*
X209304000Y-76331440D01*
X210304000Y-76331440D01*
X210327597Y-76327000D01*
X210771954Y-76327000D01*
X210898119Y-76152126D01*
X210865348Y-76073000D01*
X224536000Y-76073000D01*
X224585410Y-76062994D01*
X224637600Y-76022200D01*
X225326981Y-75103026D01*
X225483167Y-75103162D01*
X225604569Y-75053000D01*
X233881178Y-75053000D01*
X234001201Y-75102838D01*
X234373167Y-75103162D01*
X234716943Y-74961117D01*
X234980192Y-74698327D01*
X235122838Y-74354799D01*
X235123162Y-73982833D01*
X234981117Y-73639057D01*
X234718327Y-73375808D01*
X234374799Y-73233162D01*
X234002833Y-73232838D01*
X233881431Y-73283000D01*
X233459207Y-73283000D01*
X233700943Y-73183117D01*
X233964192Y-72920327D01*
X234106838Y-72576799D01*
X234107162Y-72204833D01*
X233965117Y-71861057D01*
X233702327Y-71597808D01*
X233358799Y-71455162D01*
X232986833Y-71454838D01*
X232865431Y-71505000D01*
X227890822Y-71505000D01*
X227770799Y-71455162D01*
X227711000Y-71455110D01*
X227711000Y-62536606D01*
X229616000Y-60631606D01*
X246253000Y-77268606D01*
X246253000Y-77268606D01*
G37*
X246253000Y-77268606D02*
X246253000Y-86741000D01*
X236582580Y-86741000D01*
X236628835Y-86694745D01*
X236748943Y-86645117D01*
X237012192Y-86382327D01*
X237154838Y-86038799D01*
X237155162Y-85666833D01*
X237013117Y-85323057D01*
X236750327Y-85059808D01*
X236406799Y-84917162D01*
X236034833Y-84916838D01*
X235691057Y-85058883D01*
X235427808Y-85321673D01*
X235377434Y-85442987D01*
X235091420Y-85729000D01*
X223124579Y-85729000D01*
X219573790Y-82178210D01*
X219286675Y-81986367D01*
X219206173Y-81970354D01*
X218948000Y-81918999D01*
X218947995Y-81919000D01*
X212344005Y-81919000D01*
X212344000Y-81918999D01*
X212085827Y-81970354D01*
X212005325Y-81986367D01*
X211718210Y-82178210D01*
X211718208Y-82178213D01*
X210961420Y-82935000D01*
X207010005Y-82935000D01*
X207010000Y-82934999D01*
X206727516Y-82991190D01*
X206671325Y-83002367D01*
X206384210Y-83194210D01*
X206384208Y-83194213D01*
X205336210Y-84242210D01*
X205144367Y-84529325D01*
X205144367Y-84529326D01*
X205143867Y-84531841D01*
X204996699Y-84384673D01*
X204763310Y-84288000D01*
X204247750Y-84288000D01*
X204089000Y-84446750D01*
X204089000Y-85471000D01*
X204109000Y-85471000D01*
X204109000Y-85725000D01*
X204089000Y-85725000D01*
X204089000Y-85745000D01*
X203835000Y-85745000D01*
X203835000Y-85725000D01*
X202810750Y-85725000D01*
X202652000Y-85883750D01*
X202652000Y-86399309D01*
X202748673Y-86632698D01*
X202856974Y-86741000D01*
X185266419Y-86741000D01*
X185552310Y-86549974D01*
X185836282Y-86124979D01*
X185936000Y-85623664D01*
X185936000Y-85572336D01*
X185836282Y-85071021D01*
X185652981Y-84796691D01*
X202652000Y-84796691D01*
X202652000Y-85312250D01*
X202810750Y-85471000D01*
X203835000Y-85471000D01*
X203835000Y-84446750D01*
X203676250Y-84288000D01*
X203160690Y-84288000D01*
X202927301Y-84384673D01*
X202748673Y-84563302D01*
X202652000Y-84796691D01*
X185652981Y-84796691D01*
X185552310Y-84646026D01*
X185127315Y-84362054D01*
X184626000Y-84262336D01*
X184124685Y-84362054D01*
X183832986Y-84556961D01*
X183660699Y-84384673D01*
X183427310Y-84288000D01*
X182911750Y-84288000D01*
X182753000Y-84446750D01*
X182753000Y-85471000D01*
X182773000Y-85471000D01*
X182773000Y-85725000D01*
X182753000Y-85725000D01*
X182753000Y-85745000D01*
X182499000Y-85745000D01*
X182499000Y-85725000D01*
X181474750Y-85725000D01*
X181316000Y-85883750D01*
X181316000Y-86399309D01*
X181412673Y-86632698D01*
X181520974Y-86741000D01*
X181194198Y-86741000D01*
X181274838Y-86546799D01*
X181275162Y-86174833D01*
X181225000Y-86053431D01*
X181225000Y-84796691D01*
X181316000Y-84796691D01*
X181316000Y-85312250D01*
X181474750Y-85471000D01*
X182499000Y-85471000D01*
X182499000Y-84446750D01*
X182340250Y-84288000D01*
X181824690Y-84288000D01*
X181591301Y-84384673D01*
X181412673Y-84563302D01*
X181316000Y-84796691D01*
X181225000Y-84796691D01*
X181225000Y-82122046D01*
X194917559Y-82122046D01*
X194963552Y-82344533D01*
X195417855Y-82499405D01*
X195896844Y-82468633D01*
X196196448Y-82344533D01*
X196242441Y-82122046D01*
X195580000Y-81459605D01*
X194917559Y-82122046D01*
X181225000Y-82122046D01*
X181225000Y-81117855D01*
X194360595Y-81117855D01*
X194391367Y-81596844D01*
X194515467Y-81896448D01*
X194737954Y-81942441D01*
X195400395Y-81280000D01*
X195759605Y-81280000D01*
X196422046Y-81942441D01*
X196644533Y-81896448D01*
X196799405Y-81442145D01*
X196768633Y-80963156D01*
X196644533Y-80663552D01*
X196422046Y-80617559D01*
X195759605Y-81280000D01*
X195400395Y-81280000D01*
X194737954Y-80617559D01*
X194515467Y-80663552D01*
X194360595Y-81117855D01*
X181225000Y-81117855D01*
X181225000Y-80437954D01*
X194917559Y-80437954D01*
X195580000Y-81100395D01*
X196242441Y-80437954D01*
X196196448Y-80215467D01*
X195742145Y-80060595D01*
X195263156Y-80091367D01*
X194963552Y-80215467D01*
X194917559Y-80437954D01*
X181225000Y-80437954D01*
X181225000Y-76755874D01*
X208709881Y-76755874D01*
X208816873Y-77014209D01*
X209106396Y-77349323D01*
X209502123Y-77548132D01*
X209677000Y-77423135D01*
X209677000Y-76581000D01*
X209931000Y-76581000D01*
X209931000Y-77423135D01*
X210105877Y-77548132D01*
X210501604Y-77349323D01*
X210791127Y-77014209D01*
X210898119Y-76755874D01*
X210771954Y-76581000D01*
X209931000Y-76581000D01*
X209677000Y-76581000D01*
X208836046Y-76581000D01*
X208709881Y-76755874D01*
X181225000Y-76755874D01*
X181225000Y-76073000D01*
X208742652Y-76073000D01*
X208709881Y-76152126D01*
X208836046Y-76327000D01*
X209282075Y-76327000D01*
X209304000Y-76331440D01*
X210304000Y-76331440D01*
X210327597Y-76327000D01*
X210771954Y-76327000D01*
X210898119Y-76152126D01*
X210865348Y-76073000D01*
X224536000Y-76073000D01*
X224585410Y-76062994D01*
X224637600Y-76022200D01*
X225326981Y-75103026D01*
X225483167Y-75103162D01*
X225604569Y-75053000D01*
X233881178Y-75053000D01*
X234001201Y-75102838D01*
X234373167Y-75103162D01*
X234716943Y-74961117D01*
X234980192Y-74698327D01*
X235122838Y-74354799D01*
X235123162Y-73982833D01*
X234981117Y-73639057D01*
X234718327Y-73375808D01*
X234374799Y-73233162D01*
X234002833Y-73232838D01*
X233881431Y-73283000D01*
X233459207Y-73283000D01*
X233700943Y-73183117D01*
X233964192Y-72920327D01*
X234106838Y-72576799D01*
X234107162Y-72204833D01*
X233965117Y-71861057D01*
X233702327Y-71597808D01*
X233358799Y-71455162D01*
X232986833Y-71454838D01*
X232865431Y-71505000D01*
X227890822Y-71505000D01*
X227770799Y-71455162D01*
X227711000Y-71455110D01*
X227711000Y-62536606D01*
X229616000Y-60631606D01*
X246253000Y-77268606D01*
M02*
