G04 #@! TF.FileFunction,Soldermask,Top*
%FSLAX46Y46*%
G04 Gerber Fmt 4.6, Leading zero omitted, Abs format (unit mm)*
G04 Created by KiCad (PCBNEW 4.0.6) date 06/29/17 03:27:00*
%MOMM*%
%LPD*%
G01*
G04 APERTURE LIST*
%ADD10C,0.100000*%
%ADD11C,1.143000*%
%ADD12R,1.000000X1.000000*%
%ADD13O,1.000000X1.000000*%
%ADD14R,2.000000X1.700000*%
%ADD15R,3.100000X1.600000*%
%ADD16R,1.600000X2.000000*%
%ADD17C,0.900000*%
%ADD18R,1.500000X0.700000*%
%ADD19R,0.800000X1.000000*%
%ADD20R,1.350000X1.350000*%
%ADD21O,1.350000X1.350000*%
%ADD22R,1.700000X1.000000*%
%ADD23R,2.000000X1.600000*%
G04 APERTURE END LIST*
D10*
D11*
X195580000Y-60960000D03*
X195580000Y-81280000D03*
D10*
G36*
X241261279Y-54384070D02*
X235604424Y-60040925D01*
X234260921Y-58697422D01*
X239917776Y-53040567D01*
X241261279Y-54384070D01*
X241261279Y-54384070D01*
G37*
G36*
X246649433Y-59772224D02*
X240992578Y-65429079D01*
X239649075Y-64085576D01*
X245305930Y-58428721D01*
X246649433Y-59772224D01*
X246649433Y-59772224D01*
G37*
G36*
X244556396Y-58386295D02*
X239253095Y-63689596D01*
X237838882Y-62275383D01*
X243142183Y-56972082D01*
X244556396Y-58386295D01*
X244556396Y-58386295D01*
G37*
G36*
X242717918Y-56547817D02*
X237414617Y-61851118D01*
X236000404Y-60436905D01*
X241303705Y-55133604D01*
X242717918Y-56547817D01*
X242717918Y-56547817D01*
G37*
D12*
X209804000Y-75184000D03*
D13*
X209804000Y-76454000D03*
D10*
G36*
X230889720Y-67492362D02*
X229687638Y-66290280D01*
X231101852Y-64876066D01*
X232303934Y-66078148D01*
X230889720Y-67492362D01*
X230889720Y-67492362D01*
G37*
G36*
X233718148Y-64663934D02*
X232516066Y-63461852D01*
X233930280Y-62047638D01*
X235132362Y-63249720D01*
X233718148Y-64663934D01*
X233718148Y-64663934D01*
G37*
G36*
X233429720Y-70032362D02*
X232227638Y-68830280D01*
X233641852Y-67416066D01*
X234843934Y-68618148D01*
X233429720Y-70032362D01*
X233429720Y-70032362D01*
G37*
G36*
X236258148Y-67203934D02*
X235056066Y-66001852D01*
X236470280Y-64587638D01*
X237672362Y-65789720D01*
X236258148Y-67203934D01*
X236258148Y-67203934D01*
G37*
G36*
X231644280Y-59761638D02*
X232846362Y-60963720D01*
X231432148Y-62377934D01*
X230230066Y-61175852D01*
X231644280Y-59761638D01*
X231644280Y-59761638D01*
G37*
G36*
X228815852Y-62590066D02*
X230017934Y-63792148D01*
X228603720Y-65206362D01*
X227401638Y-64004280D01*
X228815852Y-62590066D01*
X228815852Y-62590066D01*
G37*
D14*
X190278000Y-85598000D03*
X194278000Y-85598000D03*
X182340000Y-115570000D03*
X178340000Y-115570000D03*
X192500000Y-115570000D03*
X188500000Y-115570000D03*
X202660000Y-115570000D03*
X198660000Y-115570000D03*
X212820000Y-115570000D03*
X208820000Y-115570000D03*
X222980000Y-115570000D03*
X218980000Y-115570000D03*
X233140000Y-115570000D03*
X229140000Y-115570000D03*
X243300000Y-115570000D03*
X239300000Y-115570000D03*
D15*
X230505000Y-77470000D03*
X239395000Y-85090000D03*
X230505000Y-80010000D03*
X239395000Y-82550000D03*
X230505000Y-82550000D03*
X239395000Y-80010000D03*
X230505000Y-85090000D03*
X239395000Y-77470000D03*
D16*
X244348000Y-78010000D03*
X244348000Y-82010000D03*
D17*
X176454000Y-81050000D03*
X176454000Y-84050000D03*
D18*
X178214000Y-80300000D03*
X178214000Y-83300000D03*
X178214000Y-84800000D03*
D19*
X175354000Y-78900000D03*
X175354000Y-86200000D03*
X177564000Y-86200000D03*
X177564000Y-78900000D03*
D20*
X182626000Y-85598000D03*
D21*
X184626000Y-85598000D03*
D20*
X203962000Y-85598000D03*
D21*
X205962000Y-85598000D03*
X207962000Y-85598000D03*
X209962000Y-85598000D03*
X211962000Y-85598000D03*
X213962000Y-85598000D03*
X215962000Y-85598000D03*
D22*
X177190000Y-120020000D03*
X183490000Y-120020000D03*
X177190000Y-123820000D03*
X183490000Y-123820000D03*
X187350000Y-120020000D03*
X193650000Y-120020000D03*
X187350000Y-123820000D03*
X193650000Y-123820000D03*
X197510000Y-120020000D03*
X203810000Y-120020000D03*
X197510000Y-123820000D03*
X203810000Y-123820000D03*
X207670000Y-120020000D03*
X213970000Y-120020000D03*
X207670000Y-123820000D03*
X213970000Y-123820000D03*
X217830000Y-120020000D03*
X224130000Y-120020000D03*
X217830000Y-123820000D03*
X224130000Y-123820000D03*
X227990000Y-120020000D03*
X234290000Y-120020000D03*
X227990000Y-123820000D03*
X234290000Y-123820000D03*
X238150000Y-120020000D03*
X244450000Y-120020000D03*
X238150000Y-123820000D03*
X244450000Y-123820000D03*
D10*
G36*
X235934365Y-72537006D02*
X234802994Y-71405635D01*
X236217207Y-69991422D01*
X237348578Y-71122793D01*
X235934365Y-72537006D01*
X235934365Y-72537006D01*
G37*
G36*
X238762793Y-69708578D02*
X237631422Y-68577207D01*
X239045635Y-67162994D01*
X240177006Y-68294365D01*
X238762793Y-69708578D01*
X238762793Y-69708578D01*
G37*
G36*
X238220365Y-74823006D02*
X237088994Y-73691635D01*
X238503207Y-72277422D01*
X239634578Y-73408793D01*
X238220365Y-74823006D01*
X238220365Y-74823006D01*
G37*
G36*
X241048793Y-71994578D02*
X239917422Y-70863207D01*
X241331635Y-69448994D01*
X242463006Y-70580365D01*
X241048793Y-71994578D01*
X241048793Y-71994578D01*
G37*
D23*
X181642000Y-81280000D03*
X185642000Y-81280000D03*
D10*
G36*
X182636726Y-89042614D02*
X183697386Y-90103274D01*
X182636726Y-91163934D01*
X181576066Y-90103274D01*
X182636726Y-89042614D01*
X182636726Y-89042614D01*
G37*
G36*
X180303274Y-91376066D02*
X181363934Y-92436726D01*
X180303274Y-93497386D01*
X179242614Y-92436726D01*
X180303274Y-91376066D01*
X180303274Y-91376066D01*
G37*
G36*
X191636726Y-89042614D02*
X192697386Y-90103274D01*
X191636726Y-91163934D01*
X190576066Y-90103274D01*
X191636726Y-89042614D01*
X191636726Y-89042614D01*
G37*
G36*
X189303274Y-91376066D02*
X190363934Y-92436726D01*
X189303274Y-93497386D01*
X188242614Y-92436726D01*
X189303274Y-91376066D01*
X189303274Y-91376066D01*
G37*
G36*
X209636726Y-89042614D02*
X210697386Y-90103274D01*
X209636726Y-91163934D01*
X208576066Y-90103274D01*
X209636726Y-89042614D01*
X209636726Y-89042614D01*
G37*
G36*
X207303274Y-91376066D02*
X208363934Y-92436726D01*
X207303274Y-93497386D01*
X206242614Y-92436726D01*
X207303274Y-91376066D01*
X207303274Y-91376066D01*
G37*
G36*
X227306726Y-89042614D02*
X228367386Y-90103274D01*
X227306726Y-91163934D01*
X226246066Y-90103274D01*
X227306726Y-89042614D01*
X227306726Y-89042614D01*
G37*
G36*
X224973274Y-91376066D02*
X226033934Y-92436726D01*
X224973274Y-93497386D01*
X223912614Y-92436726D01*
X224973274Y-91376066D01*
X224973274Y-91376066D01*
G37*
G36*
X245061726Y-89097614D02*
X246122386Y-90158274D01*
X245061726Y-91218934D01*
X244001066Y-90158274D01*
X245061726Y-89097614D01*
X245061726Y-89097614D01*
G37*
G36*
X242728274Y-91431066D02*
X243788934Y-92491726D01*
X242728274Y-93552386D01*
X241667614Y-92491726D01*
X242728274Y-91431066D01*
X242728274Y-91431066D01*
G37*
G36*
X187136726Y-89042614D02*
X188197386Y-90103274D01*
X187136726Y-91163934D01*
X186076066Y-90103274D01*
X187136726Y-89042614D01*
X187136726Y-89042614D01*
G37*
G36*
X184803274Y-91376066D02*
X185863934Y-92436726D01*
X184803274Y-93497386D01*
X183742614Y-92436726D01*
X184803274Y-91376066D01*
X184803274Y-91376066D01*
G37*
G36*
X205136726Y-89042614D02*
X206197386Y-90103274D01*
X205136726Y-91163934D01*
X204076066Y-90103274D01*
X205136726Y-89042614D01*
X205136726Y-89042614D01*
G37*
G36*
X202803274Y-91376066D02*
X203863934Y-92436726D01*
X202803274Y-93497386D01*
X201742614Y-92436726D01*
X202803274Y-91376066D01*
X202803274Y-91376066D01*
G37*
G36*
X222806726Y-89042614D02*
X223867386Y-90103274D01*
X222806726Y-91163934D01*
X221746066Y-90103274D01*
X222806726Y-89042614D01*
X222806726Y-89042614D01*
G37*
G36*
X220473274Y-91376066D02*
X221533934Y-92436726D01*
X220473274Y-93497386D01*
X219412614Y-92436726D01*
X220473274Y-91376066D01*
X220473274Y-91376066D01*
G37*
G36*
X240561726Y-89097614D02*
X241622386Y-90158274D01*
X240561726Y-91218934D01*
X239501066Y-90158274D01*
X240561726Y-89097614D01*
X240561726Y-89097614D01*
G37*
G36*
X238228274Y-91431066D02*
X239288934Y-92491726D01*
X238228274Y-93552386D01*
X237167614Y-92491726D01*
X238228274Y-91431066D01*
X238228274Y-91431066D01*
G37*
G36*
X200636726Y-89042614D02*
X201697386Y-90103274D01*
X200636726Y-91163934D01*
X199576066Y-90103274D01*
X200636726Y-89042614D01*
X200636726Y-89042614D01*
G37*
G36*
X198303274Y-91376066D02*
X199363934Y-92436726D01*
X198303274Y-93497386D01*
X197242614Y-92436726D01*
X198303274Y-91376066D01*
X198303274Y-91376066D01*
G37*
G36*
X218306726Y-89042614D02*
X219367386Y-90103274D01*
X218306726Y-91163934D01*
X217246066Y-90103274D01*
X218306726Y-89042614D01*
X218306726Y-89042614D01*
G37*
G36*
X215973274Y-91376066D02*
X217033934Y-92436726D01*
X215973274Y-93497386D01*
X214912614Y-92436726D01*
X215973274Y-91376066D01*
X215973274Y-91376066D01*
G37*
G36*
X236061726Y-89097614D02*
X237122386Y-90158274D01*
X236061726Y-91218934D01*
X235001066Y-90158274D01*
X236061726Y-89097614D01*
X236061726Y-89097614D01*
G37*
G36*
X233728274Y-91431066D02*
X234788934Y-92491726D01*
X233728274Y-93552386D01*
X232667614Y-92491726D01*
X233728274Y-91431066D01*
X233728274Y-91431066D01*
G37*
G36*
X178136726Y-89042614D02*
X179197386Y-90103274D01*
X178136726Y-91163934D01*
X177076066Y-90103274D01*
X178136726Y-89042614D01*
X178136726Y-89042614D01*
G37*
G36*
X175803274Y-91376066D02*
X176863934Y-92436726D01*
X175803274Y-93497386D01*
X174742614Y-92436726D01*
X175803274Y-91376066D01*
X175803274Y-91376066D01*
G37*
G36*
X196136726Y-89042614D02*
X197197386Y-90103274D01*
X196136726Y-91163934D01*
X195076066Y-90103274D01*
X196136726Y-89042614D01*
X196136726Y-89042614D01*
G37*
G36*
X193803274Y-91376066D02*
X194863934Y-92436726D01*
X193803274Y-93497386D01*
X192742614Y-92436726D01*
X193803274Y-91376066D01*
X193803274Y-91376066D01*
G37*
G36*
X213806726Y-89042614D02*
X214867386Y-90103274D01*
X213806726Y-91163934D01*
X212746066Y-90103274D01*
X213806726Y-89042614D01*
X213806726Y-89042614D01*
G37*
G36*
X211473274Y-91376066D02*
X212533934Y-92436726D01*
X211473274Y-93497386D01*
X210412614Y-92436726D01*
X211473274Y-91376066D01*
X211473274Y-91376066D01*
G37*
G36*
X231561726Y-89097614D02*
X232622386Y-90158274D01*
X231561726Y-91218934D01*
X230501066Y-90158274D01*
X231561726Y-89097614D01*
X231561726Y-89097614D01*
G37*
G36*
X229228274Y-91431066D02*
X230288934Y-92491726D01*
X229228274Y-93552386D01*
X228167614Y-92491726D01*
X229228274Y-91431066D01*
X229228274Y-91431066D01*
G37*
G36*
X178136726Y-93542614D02*
X179197386Y-94603274D01*
X178136726Y-95663934D01*
X177076066Y-94603274D01*
X178136726Y-93542614D01*
X178136726Y-93542614D01*
G37*
G36*
X175803274Y-95876066D02*
X176863934Y-96936726D01*
X175803274Y-97997386D01*
X174742614Y-96936726D01*
X175803274Y-95876066D01*
X175803274Y-95876066D01*
G37*
G36*
X196136726Y-93542614D02*
X197197386Y-94603274D01*
X196136726Y-95663934D01*
X195076066Y-94603274D01*
X196136726Y-93542614D01*
X196136726Y-93542614D01*
G37*
G36*
X193803274Y-95876066D02*
X194863934Y-96936726D01*
X193803274Y-97997386D01*
X192742614Y-96936726D01*
X193803274Y-95876066D01*
X193803274Y-95876066D01*
G37*
G36*
X213806726Y-93542614D02*
X214867386Y-94603274D01*
X213806726Y-95663934D01*
X212746066Y-94603274D01*
X213806726Y-93542614D01*
X213806726Y-93542614D01*
G37*
G36*
X211473274Y-95876066D02*
X212533934Y-96936726D01*
X211473274Y-97997386D01*
X210412614Y-96936726D01*
X211473274Y-95876066D01*
X211473274Y-95876066D01*
G37*
G36*
X231561726Y-93597614D02*
X232622386Y-94658274D01*
X231561726Y-95718934D01*
X230501066Y-94658274D01*
X231561726Y-93597614D01*
X231561726Y-93597614D01*
G37*
G36*
X229228274Y-95931066D02*
X230288934Y-96991726D01*
X229228274Y-98052386D01*
X228167614Y-96991726D01*
X229228274Y-95931066D01*
X229228274Y-95931066D01*
G37*
G36*
X182636726Y-93542614D02*
X183697386Y-94603274D01*
X182636726Y-95663934D01*
X181576066Y-94603274D01*
X182636726Y-93542614D01*
X182636726Y-93542614D01*
G37*
G36*
X180303274Y-95876066D02*
X181363934Y-96936726D01*
X180303274Y-97997386D01*
X179242614Y-96936726D01*
X180303274Y-95876066D01*
X180303274Y-95876066D01*
G37*
G36*
X200636726Y-93542614D02*
X201697386Y-94603274D01*
X200636726Y-95663934D01*
X199576066Y-94603274D01*
X200636726Y-93542614D01*
X200636726Y-93542614D01*
G37*
G36*
X198303274Y-95876066D02*
X199363934Y-96936726D01*
X198303274Y-97997386D01*
X197242614Y-96936726D01*
X198303274Y-95876066D01*
X198303274Y-95876066D01*
G37*
G36*
X218306726Y-93542614D02*
X219367386Y-94603274D01*
X218306726Y-95663934D01*
X217246066Y-94603274D01*
X218306726Y-93542614D01*
X218306726Y-93542614D01*
G37*
G36*
X215973274Y-95876066D02*
X217033934Y-96936726D01*
X215973274Y-97997386D01*
X214912614Y-96936726D01*
X215973274Y-95876066D01*
X215973274Y-95876066D01*
G37*
G36*
X236061726Y-93597614D02*
X237122386Y-94658274D01*
X236061726Y-95718934D01*
X235001066Y-94658274D01*
X236061726Y-93597614D01*
X236061726Y-93597614D01*
G37*
G36*
X233728274Y-95931066D02*
X234788934Y-96991726D01*
X233728274Y-98052386D01*
X232667614Y-96991726D01*
X233728274Y-95931066D01*
X233728274Y-95931066D01*
G37*
G36*
X187136726Y-93542614D02*
X188197386Y-94603274D01*
X187136726Y-95663934D01*
X186076066Y-94603274D01*
X187136726Y-93542614D01*
X187136726Y-93542614D01*
G37*
G36*
X184803274Y-95876066D02*
X185863934Y-96936726D01*
X184803274Y-97997386D01*
X183742614Y-96936726D01*
X184803274Y-95876066D01*
X184803274Y-95876066D01*
G37*
G36*
X205136726Y-93542614D02*
X206197386Y-94603274D01*
X205136726Y-95663934D01*
X204076066Y-94603274D01*
X205136726Y-93542614D01*
X205136726Y-93542614D01*
G37*
G36*
X202803274Y-95876066D02*
X203863934Y-96936726D01*
X202803274Y-97997386D01*
X201742614Y-96936726D01*
X202803274Y-95876066D01*
X202803274Y-95876066D01*
G37*
G36*
X222806726Y-93542614D02*
X223867386Y-94603274D01*
X222806726Y-95663934D01*
X221746066Y-94603274D01*
X222806726Y-93542614D01*
X222806726Y-93542614D01*
G37*
G36*
X220473274Y-95876066D02*
X221533934Y-96936726D01*
X220473274Y-97997386D01*
X219412614Y-96936726D01*
X220473274Y-95876066D01*
X220473274Y-95876066D01*
G37*
G36*
X240561726Y-93597614D02*
X241622386Y-94658274D01*
X240561726Y-95718934D01*
X239501066Y-94658274D01*
X240561726Y-93597614D01*
X240561726Y-93597614D01*
G37*
G36*
X238228274Y-95931066D02*
X239288934Y-96991726D01*
X238228274Y-98052386D01*
X237167614Y-96991726D01*
X238228274Y-95931066D01*
X238228274Y-95931066D01*
G37*
G36*
X191636726Y-93542614D02*
X192697386Y-94603274D01*
X191636726Y-95663934D01*
X190576066Y-94603274D01*
X191636726Y-93542614D01*
X191636726Y-93542614D01*
G37*
G36*
X189303274Y-95876066D02*
X190363934Y-96936726D01*
X189303274Y-97997386D01*
X188242614Y-96936726D01*
X189303274Y-95876066D01*
X189303274Y-95876066D01*
G37*
G36*
X209636726Y-93542614D02*
X210697386Y-94603274D01*
X209636726Y-95663934D01*
X208576066Y-94603274D01*
X209636726Y-93542614D01*
X209636726Y-93542614D01*
G37*
G36*
X207303274Y-95876066D02*
X208363934Y-96936726D01*
X207303274Y-97997386D01*
X206242614Y-96936726D01*
X207303274Y-95876066D01*
X207303274Y-95876066D01*
G37*
G36*
X227306726Y-93542614D02*
X228367386Y-94603274D01*
X227306726Y-95663934D01*
X226246066Y-94603274D01*
X227306726Y-93542614D01*
X227306726Y-93542614D01*
G37*
G36*
X224973274Y-95876066D02*
X226033934Y-96936726D01*
X224973274Y-97997386D01*
X223912614Y-96936726D01*
X224973274Y-95876066D01*
X224973274Y-95876066D01*
G37*
G36*
X245061726Y-93597614D02*
X246122386Y-94658274D01*
X245061726Y-95718934D01*
X244001066Y-94658274D01*
X245061726Y-93597614D01*
X245061726Y-93597614D01*
G37*
G36*
X242728274Y-95931066D02*
X243788934Y-96991726D01*
X242728274Y-98052386D01*
X241667614Y-96991726D01*
X242728274Y-95931066D01*
X242728274Y-95931066D01*
G37*
G36*
X178136726Y-98042614D02*
X179197386Y-99103274D01*
X178136726Y-100163934D01*
X177076066Y-99103274D01*
X178136726Y-98042614D01*
X178136726Y-98042614D01*
G37*
G36*
X175803274Y-100376066D02*
X176863934Y-101436726D01*
X175803274Y-102497386D01*
X174742614Y-101436726D01*
X175803274Y-100376066D01*
X175803274Y-100376066D01*
G37*
G36*
X209636726Y-98042614D02*
X210697386Y-99103274D01*
X209636726Y-100163934D01*
X208576066Y-99103274D01*
X209636726Y-98042614D01*
X209636726Y-98042614D01*
G37*
G36*
X207303274Y-100376066D02*
X208363934Y-101436726D01*
X207303274Y-102497386D01*
X206242614Y-101436726D01*
X207303274Y-100376066D01*
X207303274Y-100376066D01*
G37*
G36*
X227306726Y-98042614D02*
X228367386Y-99103274D01*
X227306726Y-100163934D01*
X226246066Y-99103274D01*
X227306726Y-98042614D01*
X227306726Y-98042614D01*
G37*
G36*
X224973274Y-100376066D02*
X226033934Y-101436726D01*
X224973274Y-102497386D01*
X223912614Y-101436726D01*
X224973274Y-100376066D01*
X224973274Y-100376066D01*
G37*
G36*
X245061726Y-98097614D02*
X246122386Y-99158274D01*
X245061726Y-100218934D01*
X244001066Y-99158274D01*
X245061726Y-98097614D01*
X245061726Y-98097614D01*
G37*
G36*
X242728274Y-100431066D02*
X243788934Y-101491726D01*
X242728274Y-102552386D01*
X241667614Y-101491726D01*
X242728274Y-100431066D01*
X242728274Y-100431066D01*
G37*
G36*
X182636726Y-98042614D02*
X183697386Y-99103274D01*
X182636726Y-100163934D01*
X181576066Y-99103274D01*
X182636726Y-98042614D01*
X182636726Y-98042614D01*
G37*
G36*
X180303274Y-100376066D02*
X181363934Y-101436726D01*
X180303274Y-102497386D01*
X179242614Y-101436726D01*
X180303274Y-100376066D01*
X180303274Y-100376066D01*
G37*
G36*
X205136726Y-98042614D02*
X206197386Y-99103274D01*
X205136726Y-100163934D01*
X204076066Y-99103274D01*
X205136726Y-98042614D01*
X205136726Y-98042614D01*
G37*
G36*
X202803274Y-100376066D02*
X203863934Y-101436726D01*
X202803274Y-102497386D01*
X201742614Y-101436726D01*
X202803274Y-100376066D01*
X202803274Y-100376066D01*
G37*
G36*
X222806726Y-98042614D02*
X223867386Y-99103274D01*
X222806726Y-100163934D01*
X221746066Y-99103274D01*
X222806726Y-98042614D01*
X222806726Y-98042614D01*
G37*
G36*
X220473274Y-100376066D02*
X221533934Y-101436726D01*
X220473274Y-102497386D01*
X219412614Y-101436726D01*
X220473274Y-100376066D01*
X220473274Y-100376066D01*
G37*
G36*
X240561726Y-98097614D02*
X241622386Y-99158274D01*
X240561726Y-100218934D01*
X239501066Y-99158274D01*
X240561726Y-98097614D01*
X240561726Y-98097614D01*
G37*
G36*
X238228274Y-100431066D02*
X239288934Y-101491726D01*
X238228274Y-102552386D01*
X237167614Y-101491726D01*
X238228274Y-100431066D01*
X238228274Y-100431066D01*
G37*
G36*
X187136726Y-98042614D02*
X188197386Y-99103274D01*
X187136726Y-100163934D01*
X186076066Y-99103274D01*
X187136726Y-98042614D01*
X187136726Y-98042614D01*
G37*
G36*
X184803274Y-100376066D02*
X185863934Y-101436726D01*
X184803274Y-102497386D01*
X183742614Y-101436726D01*
X184803274Y-100376066D01*
X184803274Y-100376066D01*
G37*
G36*
X200636726Y-98042614D02*
X201697386Y-99103274D01*
X200636726Y-100163934D01*
X199576066Y-99103274D01*
X200636726Y-98042614D01*
X200636726Y-98042614D01*
G37*
G36*
X198303274Y-100376066D02*
X199363934Y-101436726D01*
X198303274Y-102497386D01*
X197242614Y-101436726D01*
X198303274Y-100376066D01*
X198303274Y-100376066D01*
G37*
G36*
X218306726Y-98042614D02*
X219367386Y-99103274D01*
X218306726Y-100163934D01*
X217246066Y-99103274D01*
X218306726Y-98042614D01*
X218306726Y-98042614D01*
G37*
G36*
X215973274Y-100376066D02*
X217033934Y-101436726D01*
X215973274Y-102497386D01*
X214912614Y-101436726D01*
X215973274Y-100376066D01*
X215973274Y-100376066D01*
G37*
G36*
X236061726Y-98097614D02*
X237122386Y-99158274D01*
X236061726Y-100218934D01*
X235001066Y-99158274D01*
X236061726Y-98097614D01*
X236061726Y-98097614D01*
G37*
G36*
X233728274Y-100431066D02*
X234788934Y-101491726D01*
X233728274Y-102552386D01*
X232667614Y-101491726D01*
X233728274Y-100431066D01*
X233728274Y-100431066D01*
G37*
G36*
X191636726Y-98042614D02*
X192697386Y-99103274D01*
X191636726Y-100163934D01*
X190576066Y-99103274D01*
X191636726Y-98042614D01*
X191636726Y-98042614D01*
G37*
G36*
X189303274Y-100376066D02*
X190363934Y-101436726D01*
X189303274Y-102497386D01*
X188242614Y-101436726D01*
X189303274Y-100376066D01*
X189303274Y-100376066D01*
G37*
G36*
X196136726Y-98042614D02*
X197197386Y-99103274D01*
X196136726Y-100163934D01*
X195076066Y-99103274D01*
X196136726Y-98042614D01*
X196136726Y-98042614D01*
G37*
G36*
X193803274Y-100376066D02*
X194863934Y-101436726D01*
X193803274Y-102497386D01*
X192742614Y-101436726D01*
X193803274Y-100376066D01*
X193803274Y-100376066D01*
G37*
G36*
X213806726Y-98042614D02*
X214867386Y-99103274D01*
X213806726Y-100163934D01*
X212746066Y-99103274D01*
X213806726Y-98042614D01*
X213806726Y-98042614D01*
G37*
G36*
X211473274Y-100376066D02*
X212533934Y-101436726D01*
X211473274Y-102497386D01*
X210412614Y-101436726D01*
X211473274Y-100376066D01*
X211473274Y-100376066D01*
G37*
G36*
X231561726Y-98097614D02*
X232622386Y-99158274D01*
X231561726Y-100218934D01*
X230501066Y-99158274D01*
X231561726Y-98097614D01*
X231561726Y-98097614D01*
G37*
G36*
X229228274Y-100431066D02*
X230288934Y-101491726D01*
X229228274Y-102552386D01*
X228167614Y-101491726D01*
X229228274Y-100431066D01*
X229228274Y-100431066D01*
G37*
G36*
X191636726Y-102542614D02*
X192697386Y-103603274D01*
X191636726Y-104663934D01*
X190576066Y-103603274D01*
X191636726Y-102542614D01*
X191636726Y-102542614D01*
G37*
G36*
X189303274Y-104876066D02*
X190363934Y-105936726D01*
X189303274Y-106997386D01*
X188242614Y-105936726D01*
X189303274Y-104876066D01*
X189303274Y-104876066D01*
G37*
G36*
X196136726Y-102542614D02*
X197197386Y-103603274D01*
X196136726Y-104663934D01*
X195076066Y-103603274D01*
X196136726Y-102542614D01*
X196136726Y-102542614D01*
G37*
G36*
X193803274Y-104876066D02*
X194863934Y-105936726D01*
X193803274Y-106997386D01*
X192742614Y-105936726D01*
X193803274Y-104876066D01*
X193803274Y-104876066D01*
G37*
G36*
X213806726Y-102542614D02*
X214867386Y-103603274D01*
X213806726Y-104663934D01*
X212746066Y-103603274D01*
X213806726Y-102542614D01*
X213806726Y-102542614D01*
G37*
G36*
X211473274Y-104876066D02*
X212533934Y-105936726D01*
X211473274Y-106997386D01*
X210412614Y-105936726D01*
X211473274Y-104876066D01*
X211473274Y-104876066D01*
G37*
G36*
X231561726Y-102597614D02*
X232622386Y-103658274D01*
X231561726Y-104718934D01*
X230501066Y-103658274D01*
X231561726Y-102597614D01*
X231561726Y-102597614D01*
G37*
G36*
X229228274Y-104931066D02*
X230288934Y-105991726D01*
X229228274Y-107052386D01*
X228167614Y-105991726D01*
X229228274Y-104931066D01*
X229228274Y-104931066D01*
G37*
G36*
X187136726Y-102542614D02*
X188197386Y-103603274D01*
X187136726Y-104663934D01*
X186076066Y-103603274D01*
X187136726Y-102542614D01*
X187136726Y-102542614D01*
G37*
G36*
X184803274Y-104876066D02*
X185863934Y-105936726D01*
X184803274Y-106997386D01*
X183742614Y-105936726D01*
X184803274Y-104876066D01*
X184803274Y-104876066D01*
G37*
G36*
X200636726Y-102542614D02*
X201697386Y-103603274D01*
X200636726Y-104663934D01*
X199576066Y-103603274D01*
X200636726Y-102542614D01*
X200636726Y-102542614D01*
G37*
G36*
X198303274Y-104876066D02*
X199363934Y-105936726D01*
X198303274Y-106997386D01*
X197242614Y-105936726D01*
X198303274Y-104876066D01*
X198303274Y-104876066D01*
G37*
G36*
X218306726Y-102542614D02*
X219367386Y-103603274D01*
X218306726Y-104663934D01*
X217246066Y-103603274D01*
X218306726Y-102542614D01*
X218306726Y-102542614D01*
G37*
G36*
X215973274Y-104876066D02*
X217033934Y-105936726D01*
X215973274Y-106997386D01*
X214912614Y-105936726D01*
X215973274Y-104876066D01*
X215973274Y-104876066D01*
G37*
G36*
X236061726Y-102597614D02*
X237122386Y-103658274D01*
X236061726Y-104718934D01*
X235001066Y-103658274D01*
X236061726Y-102597614D01*
X236061726Y-102597614D01*
G37*
G36*
X233728274Y-104931066D02*
X234788934Y-105991726D01*
X233728274Y-107052386D01*
X232667614Y-105991726D01*
X233728274Y-104931066D01*
X233728274Y-104931066D01*
G37*
G36*
X182636726Y-102542614D02*
X183697386Y-103603274D01*
X182636726Y-104663934D01*
X181576066Y-103603274D01*
X182636726Y-102542614D01*
X182636726Y-102542614D01*
G37*
G36*
X180303274Y-104876066D02*
X181363934Y-105936726D01*
X180303274Y-106997386D01*
X179242614Y-105936726D01*
X180303274Y-104876066D01*
X180303274Y-104876066D01*
G37*
G36*
X205136726Y-102542614D02*
X206197386Y-103603274D01*
X205136726Y-104663934D01*
X204076066Y-103603274D01*
X205136726Y-102542614D01*
X205136726Y-102542614D01*
G37*
G36*
X202803274Y-104876066D02*
X203863934Y-105936726D01*
X202803274Y-106997386D01*
X201742614Y-105936726D01*
X202803274Y-104876066D01*
X202803274Y-104876066D01*
G37*
G36*
X222806726Y-102542614D02*
X223867386Y-103603274D01*
X222806726Y-104663934D01*
X221746066Y-103603274D01*
X222806726Y-102542614D01*
X222806726Y-102542614D01*
G37*
G36*
X220473274Y-104876066D02*
X221533934Y-105936726D01*
X220473274Y-106997386D01*
X219412614Y-105936726D01*
X220473274Y-104876066D01*
X220473274Y-104876066D01*
G37*
G36*
X240561726Y-102597614D02*
X241622386Y-103658274D01*
X240561726Y-104718934D01*
X239501066Y-103658274D01*
X240561726Y-102597614D01*
X240561726Y-102597614D01*
G37*
G36*
X238228274Y-104931066D02*
X239288934Y-105991726D01*
X238228274Y-107052386D01*
X237167614Y-105991726D01*
X238228274Y-104931066D01*
X238228274Y-104931066D01*
G37*
G36*
X178136726Y-102542614D02*
X179197386Y-103603274D01*
X178136726Y-104663934D01*
X177076066Y-103603274D01*
X178136726Y-102542614D01*
X178136726Y-102542614D01*
G37*
G36*
X175803274Y-104876066D02*
X176863934Y-105936726D01*
X175803274Y-106997386D01*
X174742614Y-105936726D01*
X175803274Y-104876066D01*
X175803274Y-104876066D01*
G37*
G36*
X209636726Y-102542614D02*
X210697386Y-103603274D01*
X209636726Y-104663934D01*
X208576066Y-103603274D01*
X209636726Y-102542614D01*
X209636726Y-102542614D01*
G37*
G36*
X207303274Y-104876066D02*
X208363934Y-105936726D01*
X207303274Y-106997386D01*
X206242614Y-105936726D01*
X207303274Y-104876066D01*
X207303274Y-104876066D01*
G37*
G36*
X227306726Y-102542614D02*
X228367386Y-103603274D01*
X227306726Y-104663934D01*
X226246066Y-103603274D01*
X227306726Y-102542614D01*
X227306726Y-102542614D01*
G37*
G36*
X224973274Y-104876066D02*
X226033934Y-105936726D01*
X224973274Y-106997386D01*
X223912614Y-105936726D01*
X224973274Y-104876066D01*
X224973274Y-104876066D01*
G37*
G36*
X245061726Y-102597614D02*
X246122386Y-103658274D01*
X245061726Y-104718934D01*
X244001066Y-103658274D01*
X245061726Y-102597614D01*
X245061726Y-102597614D01*
G37*
G36*
X242728274Y-104931066D02*
X243788934Y-105991726D01*
X242728274Y-107052386D01*
X241667614Y-105991726D01*
X242728274Y-104931066D01*
X242728274Y-104931066D01*
G37*
G36*
X178136726Y-107042614D02*
X179197386Y-108103274D01*
X178136726Y-109163934D01*
X177076066Y-108103274D01*
X178136726Y-107042614D01*
X178136726Y-107042614D01*
G37*
G36*
X175803274Y-109376066D02*
X176863934Y-110436726D01*
X175803274Y-111497386D01*
X174742614Y-110436726D01*
X175803274Y-109376066D01*
X175803274Y-109376066D01*
G37*
G36*
X209636726Y-107042614D02*
X210697386Y-108103274D01*
X209636726Y-109163934D01*
X208576066Y-108103274D01*
X209636726Y-107042614D01*
X209636726Y-107042614D01*
G37*
G36*
X207303274Y-109376066D02*
X208363934Y-110436726D01*
X207303274Y-111497386D01*
X206242614Y-110436726D01*
X207303274Y-109376066D01*
X207303274Y-109376066D01*
G37*
G36*
X227306726Y-107042614D02*
X228367386Y-108103274D01*
X227306726Y-109163934D01*
X226246066Y-108103274D01*
X227306726Y-107042614D01*
X227306726Y-107042614D01*
G37*
G36*
X224973274Y-109376066D02*
X226033934Y-110436726D01*
X224973274Y-111497386D01*
X223912614Y-110436726D01*
X224973274Y-109376066D01*
X224973274Y-109376066D01*
G37*
G36*
X245061726Y-107097614D02*
X246122386Y-108158274D01*
X245061726Y-109218934D01*
X244001066Y-108158274D01*
X245061726Y-107097614D01*
X245061726Y-107097614D01*
G37*
G36*
X242728274Y-109431066D02*
X243788934Y-110491726D01*
X242728274Y-111552386D01*
X241667614Y-110491726D01*
X242728274Y-109431066D01*
X242728274Y-109431066D01*
G37*
G36*
X182636726Y-107042614D02*
X183697386Y-108103274D01*
X182636726Y-109163934D01*
X181576066Y-108103274D01*
X182636726Y-107042614D01*
X182636726Y-107042614D01*
G37*
G36*
X180303274Y-109376066D02*
X181363934Y-110436726D01*
X180303274Y-111497386D01*
X179242614Y-110436726D01*
X180303274Y-109376066D01*
X180303274Y-109376066D01*
G37*
G36*
X205136726Y-107042614D02*
X206197386Y-108103274D01*
X205136726Y-109163934D01*
X204076066Y-108103274D01*
X205136726Y-107042614D01*
X205136726Y-107042614D01*
G37*
G36*
X202803274Y-109376066D02*
X203863934Y-110436726D01*
X202803274Y-111497386D01*
X201742614Y-110436726D01*
X202803274Y-109376066D01*
X202803274Y-109376066D01*
G37*
G36*
X222806726Y-107042614D02*
X223867386Y-108103274D01*
X222806726Y-109163934D01*
X221746066Y-108103274D01*
X222806726Y-107042614D01*
X222806726Y-107042614D01*
G37*
G36*
X220473274Y-109376066D02*
X221533934Y-110436726D01*
X220473274Y-111497386D01*
X219412614Y-110436726D01*
X220473274Y-109376066D01*
X220473274Y-109376066D01*
G37*
G36*
X240561726Y-107097614D02*
X241622386Y-108158274D01*
X240561726Y-109218934D01*
X239501066Y-108158274D01*
X240561726Y-107097614D01*
X240561726Y-107097614D01*
G37*
G36*
X238228274Y-109431066D02*
X239288934Y-110491726D01*
X238228274Y-111552386D01*
X237167614Y-110491726D01*
X238228274Y-109431066D01*
X238228274Y-109431066D01*
G37*
G36*
X187136726Y-107042614D02*
X188197386Y-108103274D01*
X187136726Y-109163934D01*
X186076066Y-108103274D01*
X187136726Y-107042614D01*
X187136726Y-107042614D01*
G37*
G36*
X184803274Y-109376066D02*
X185863934Y-110436726D01*
X184803274Y-111497386D01*
X183742614Y-110436726D01*
X184803274Y-109376066D01*
X184803274Y-109376066D01*
G37*
G36*
X200636726Y-107042614D02*
X201697386Y-108103274D01*
X200636726Y-109163934D01*
X199576066Y-108103274D01*
X200636726Y-107042614D01*
X200636726Y-107042614D01*
G37*
G36*
X198303274Y-109376066D02*
X199363934Y-110436726D01*
X198303274Y-111497386D01*
X197242614Y-110436726D01*
X198303274Y-109376066D01*
X198303274Y-109376066D01*
G37*
G36*
X218306726Y-107042614D02*
X219367386Y-108103274D01*
X218306726Y-109163934D01*
X217246066Y-108103274D01*
X218306726Y-107042614D01*
X218306726Y-107042614D01*
G37*
G36*
X215973274Y-109376066D02*
X217033934Y-110436726D01*
X215973274Y-111497386D01*
X214912614Y-110436726D01*
X215973274Y-109376066D01*
X215973274Y-109376066D01*
G37*
G36*
X236061726Y-107097614D02*
X237122386Y-108158274D01*
X236061726Y-109218934D01*
X235001066Y-108158274D01*
X236061726Y-107097614D01*
X236061726Y-107097614D01*
G37*
G36*
X233728274Y-109431066D02*
X234788934Y-110491726D01*
X233728274Y-111552386D01*
X232667614Y-110491726D01*
X233728274Y-109431066D01*
X233728274Y-109431066D01*
G37*
G36*
X191636726Y-107042614D02*
X192697386Y-108103274D01*
X191636726Y-109163934D01*
X190576066Y-108103274D01*
X191636726Y-107042614D01*
X191636726Y-107042614D01*
G37*
G36*
X189303274Y-109376066D02*
X190363934Y-110436726D01*
X189303274Y-111497386D01*
X188242614Y-110436726D01*
X189303274Y-109376066D01*
X189303274Y-109376066D01*
G37*
G36*
X196136726Y-107042614D02*
X197197386Y-108103274D01*
X196136726Y-109163934D01*
X195076066Y-108103274D01*
X196136726Y-107042614D01*
X196136726Y-107042614D01*
G37*
G36*
X193803274Y-109376066D02*
X194863934Y-110436726D01*
X193803274Y-111497386D01*
X192742614Y-110436726D01*
X193803274Y-109376066D01*
X193803274Y-109376066D01*
G37*
G36*
X213806726Y-107042614D02*
X214867386Y-108103274D01*
X213806726Y-109163934D01*
X212746066Y-108103274D01*
X213806726Y-107042614D01*
X213806726Y-107042614D01*
G37*
G36*
X211473274Y-109376066D02*
X212533934Y-110436726D01*
X211473274Y-111497386D01*
X210412614Y-110436726D01*
X211473274Y-109376066D01*
X211473274Y-109376066D01*
G37*
G36*
X231561726Y-107097614D02*
X232622386Y-108158274D01*
X231561726Y-109218934D01*
X230501066Y-108158274D01*
X231561726Y-107097614D01*
X231561726Y-107097614D01*
G37*
G36*
X229228274Y-109431066D02*
X230288934Y-110491726D01*
X229228274Y-111552386D01*
X228167614Y-110491726D01*
X229228274Y-109431066D01*
X229228274Y-109431066D01*
G37*
M02*
