M48
METRIC,TZ
T1C0.400
T2C0.635
T3C0.650
T4C0.800
T5C0.900
%
G90
G05
T1
X175.26Y-121.92
X176.784Y-114.046
X177.292Y-112.776
X180.303Y-94.488
X180.34Y-86.36
X182.626Y-110.744
X184.803Y-94.488
X187.198Y-110.744
X189.303Y-94.488
X191.516Y-110.744
X193.803Y-94.488
X194.31Y-83.82
X196.088Y-110.744
X198.303Y-94.488
X200.66Y-110.744
X202.803Y-94.488
X205.232Y-110.744
X207.303Y-94.488
X209.55Y-110.744
X211.473Y-94.488
X213.868Y-110.744
X215.973Y-94.488
X218.186Y-83.82
X218.186Y-110.744
X220.473Y-94.488
X222.758Y-110.744
X224.973Y-94.488
X225.298Y-74.168
X227.076Y-110.744
X227.584Y-72.39
X227.838Y-85.09
X229.228Y-94.488
X230.632Y-59.182
X231.648Y-110.744
X233.172Y-72.39
X233.728Y-94.488
X234.188Y-74.168
X236.22Y-85.852
X236.22Y-110.744
X238.228Y-94.488
X239.522Y-70.104
X240.538Y-110.744
X241.808Y-72.39
X242.57Y-82.042
X242.728Y-94.488
X243.332Y-71.882
T2
X195.58Y-60.96
X195.58Y-81.28
T3
X209.804Y-75.184
X209.804Y-76.454
T4
X182.626Y-85.598
X184.626Y-85.598
X203.962Y-85.598
X205.962Y-85.598
X207.962Y-85.598
X209.962Y-85.598
X211.962Y-85.598
X213.962Y-85.598
X215.962Y-85.598
T5
X176.454Y-81.05
X176.454Y-84.05
T0
M30
